<svg id="Capa_1" data-name="Capa 1" xmlns="http://www.w3.org/2000/svg" viewBox="0 0 240 240"><defs><style>.cls-1{fill:#fff;}.cls-2{fill:#aa182c;}.cls-3{fill:#001689;}</style></defs><title>logos-power-appcore</title><rect class="cls-1" width="240" height="240"/><polygon class="cls-2" points="205.55 34.32 205.57 34.32 205.57 34.36 232.52 34.36 232.52 7.59 205.55 7.59 205.55 34.32"/><polygon class="cls-2" points="34.43 186.98 34.43 34.32 186.91 34.32 186.91 7.59 7.48 7.59 7.48 186.98 34.43 186.98"/><polygon class="cls-2" points="34.43 205.68 34.43 205.62 7.48 205.62 7.48 232.41 34.43 232.41 34.43 205.68"/><polygon class="cls-2" points="205.57 53 205.57 205.68 53.07 205.68 53.07 232.41 232.52 232.41 232.52 53 205.57 53"/><path class="cls-3" d="M80.89,58.11l-.17-.41h-8L52.37,106.05h8.81L66,94.51H87l4.76,11.54h8.73Zm3.18,29.18h-15l7.62-18Z"/><path class="cls-3" d="M117.82,106.37c.57.12,1.15.22,1.71.3a29.68,29.68,0,0,0,4.54.35,18.81,18.81,0,0,0,19.48-19.38c0-5.53-1.6-10-4.75-13.39-3.36-3.55-7.93-5.35-13.59-5.35A37.77,37.77,0,0,0,111,71.61l-1.3.53v51.72h8.14Zm0-29.33a27.6,27.6,0,0,1,7-.92c3.34,0,5.83,1,7.64,3.18S135,84.12,135,87.62A12.42,12.42,0,0,1,132,96.18a10.52,10.52,0,0,1-8.28,3.62,21.17,21.17,0,0,1-5.87-1Z"/><path class="cls-3" d="M161.19,106.37c.57.12,1.14.22,1.7.3a29.72,29.72,0,0,0,4.55.35,18.81,18.81,0,0,0,19.47-19.38c0-5.53-1.6-10-4.75-13.39-3.35-3.55-7.92-5.35-13.58-5.35a37.78,37.78,0,0,0-14.24,2.71l-1.29.53v51.72h8.14Zm0-29.33a27.58,27.58,0,0,1,7-.92c3.34,0,5.84,1,7.64,3.18s2.52,4.82,2.52,8.32a12.42,12.42,0,0,1-3,8.56A10.53,10.53,0,0,1,167,99.8a21,21,0,0,1-5.85-1Z"/><path class="cls-3" d="M78.48,131.7A25.31,25.31,0,0,0,60,139a25.88,25.88,0,0,0,0,36.11c4.82,4.77,11,7.17,18.44,7.17a39.25,39.25,0,0,0,11.31-1.71l1.48-.45v-7.92l-2.81,1.06a28.47,28.47,0,0,1-10,1.8,16.52,16.52,0,0,1-12.68-5.32,17.36,17.36,0,0,1-5-12.75,17.62,17.62,0,0,1,5-12.84,16.46,16.46,0,0,1,12.66-5.24,27.3,27.3,0,0,1,10,1.87l2.83,1.1V134l-1.42-.47A35.68,35.68,0,0,0,78.48,131.7Z"/><path class="cls-3" d="M114.2,144.05c-5.72,0-10.28,1.81-13.57,5.4-3,3.42-4.57,7.92-4.57,13.34s1.55,10.16,4.61,13.7c3.27,3.85,7.84,5.8,13.6,5.8s10.29-1.8,13.42-5.37c3-3.31,4.52-7.81,4.52-13.37a20.56,20.56,0,0,0-4.54-13.62C124.41,146,119.87,144.05,114.2,144.05Zm-7.29,10.34c1.6-2.1,4-3.12,7.29-3.12a8.16,8.16,0,0,1,7.17,3.42,15.27,15.27,0,0,1,2.31,8.83c0,3.64-.74,6.47-2.21,8.4-1.56,2.12-3.91,3.15-7.2,3.15a8.36,8.36,0,0,1-7.33-3.51c-1.56-2.17-2.35-5.13-2.35-8.79S105.37,156.39,106.91,154.39Z"/><path class="cls-3" d="M155.59,144.66l-1.69-.33a7.5,7.5,0,0,0-1.24-.09h-1.24A36.58,36.58,0,0,0,137.1,147l-1.27.53V181.3H144V152.38a27.81,27.81,0,0,1,7.06-.92l.84,0,1.5.09,2.22.15Z"/><path class="cls-3" d="M173,175.07a8.64,8.64,0,0,1-7-3,11.39,11.39,0,0,1-2.53-5.49h14.77a10,10,0,0,0,6.52-2.16,7.53,7.53,0,0,0,2.83-6.12,13.43,13.43,0,0,0-4.29-10,14.36,14.36,0,0,0-10.36-4.15c-5.87,0-10.46,2-13.66,5.9-2.78,3.41-4.19,7.86-4.19,13.22s1.48,10,4.41,13.43c3.15,3.73,7.69,5.62,13.5,5.62a39.29,39.29,0,0,0,11.07-1.58l1.49-.44v-7.86l-2.76,1A29.82,29.82,0,0,1,173,175.07ZM179.13,159a1.16,1.16,0,0,1-.88.36H163.57a11.57,11.57,0,0,1,2.47-5.12,8.83,8.83,0,0,1,7-2.89,5.81,5.81,0,0,1,4.42,2.14,7,7,0,0,1,2,4.81A.82.82,0,0,1,179.13,159Z"/></svg>