<svg id="Capa_1" data-name="Capa 1" xmlns="http://www.w3.org/2000/svg" viewBox="0 0 240 240"><defs><style>.cls-1{fill:#ccc;}.cls-1,.cls-2,.cls-3{fill-rule:evenodd;}.cls-2{fill:#e6e6e6;}.cls-3{fill:none;}</style></defs><title>logos-power-appcore</title><path class="cls-1" d="M124.31,165,84.56,126,22.64,174.71c20.17,31.17,56.67,52,98.36,52,63.51,0,115-48.35,115-108a102.28,102.28,0,0,0-13.21-50.28Z"/><path class="cls-2" d="M85.2,94.94l40.08,40.5,94.34-72.26C199.51,31.78,162.87,10.76,121,10.76c-63.51,0-115,48.34-115,108a101.85,101.85,0,0,0,5.49,33Z"/><path class="cls-3" d="M236,119.27c0,59.62-51.49,108-115,108S6,178.89,6,119.27s51.49-108,115-108S236,59.63,236,119.27Z"/></svg>