<svg id="Capa_1" data-name="Capa 1" xmlns="http://www.w3.org/2000/svg" viewBox="0 0 320 39"><defs><style>.cls-1{fill:#003c77;}</style></defs><title>logos-power-appcore</title><path class="cls-1" d="M11.06,18.87,9.19,26.64l0,.16a2.64,2.64,0,0,0,.07.55l-1.1,4.76-6.48,0,1.24-5.8L7,8.17A8.88,8.88,0,0,1,12.52,3a22.72,22.72,0,0,1,2.36-.33q1.2-.12,2.46-.12L29,2.52c.75,0,1.45.09,2.11.18A16.19,16.19,0,0,1,33,3.05a6,6,0,0,1,3.31,3.7l.42,1.64-1.35,7.66c-.47,1.82-2.12,2.74-5,2.75h-2.5ZM26.11,6.46l-8.28,0A4.44,4.44,0,0,0,13.6,8.36l-1.73,6.46,13.9-.05c2.11,0,3.35-.81,3.73-2.42l.83-3.94a4.42,4.42,0,0,0-3.16-1.95Z"/><path class="cls-1" d="M61.5,27.76c-.44,2.67-3,4-7.62,4l-10.23,0q-6,0-6.7-2.88a3.61,3.61,0,0,1-.06-1.25l2.76-12.2c.27-2.41,2.17-3.58,5.72-3.52l10.34,0q7.17,0,8.3,3.8Zm-13.45-12a2.73,2.73,0,0,0-2.68,1.32l-2.25,9.62c.23.81,1,1.2,2.3,1.2l8.33,0a2,2,0,0,0,1.59-1.27l2.31-9.63a1.9,1.9,0,0,0-1.95-1.3H53.2Z"/><path class="cls-1" d="M81.89,27.85h5.29c.56-.15.91-.66,1.08-1.54l2.15-9.41,1.14-5,6.11,0-1,4.1-2.76,12.2c-.53,2.33-2.24,3.51-5.14,3.52l-15.92.05c-4.79,0-7.55-1.25-8.31-3.79l2.51-12,.76-3.94,6.33,0L70.88,26.58a1.9,1.9,0,0,0,2,1.31l4,0,.37-2.29L80.08,11.9l5.44,0-3,13.68Z"/><path class="cls-1" d="M106.11,23.67h-1.18l-.67,2.85c.23.8,1,1.2,2.29,1.19l16.26-.06L122,31.54l-17.18.06c-4,0-6.21-.94-6.7-2.87A3.67,3.67,0,0,1,98,27.47l2.77-12.2q.39-3.61,5.72-3.52l16.41-.06c2,0,2.7,1.27,2.23,3.82l-.84,5.36a3.34,3.34,0,0,1-3.56,2.75Zm13-6.17q1.05-2.25-1.46-2l-8.46,0a2.75,2.75,0,0,0-2.68,1.32l-.91,2.74,4,0,9,0,.51-2Z"/><path class="cls-1" d="M136.92,15.47a2.73,2.73,0,0,0-2.68,1.32L132,26.42l-1.14,5-6.11,0,1-4.1,2.65-11.76q.51-4,5.85-3.9l16.19-.06-.95,3.77-7.43,0Z"/><path class="cls-1" d="M164,24.28l0,.16a2.45,2.45,0,0,0,.07.54l-1.16,4.7-6.39,0L157.82,24,161.87,6,163.22.53l6.4,0-1.23,5.72L165.8,16.82Z"/><path class="cls-1" d="M181.93,15.9l.51-2.27-5.82,0L176.3,15l-2.21,9.51-1.13,5-6,0,1-4.05,2.73-12,.78-3.46,20-.07q7.08,0,8.2,3.75l-2.48,11.89-.75,3.88-6.25,0,3.2-14.48a1.92,1.92,0,0,0-1.93-1.29h-4l-.36,2.27L184.3,29.39l-5.38,0Z"/><path class="cls-1" d="M224.28,25.36q-.66,3.95-7.53,4H204.57l-2,7.78-5.45,0L200,25.28l2.73-12q.39-3.57,5.65-3.48l10.21,0q7.08,0,8.2,3.75ZM211,13.53a2.72,2.72,0,0,0-2.65,1.31l-2.21,9.5c.23.8,1,1.19,2.26,1.18l8.23,0a1.93,1.93,0,0,0,1.57-1.25l2.29-9.51a1.92,1.92,0,0,0-1.93-1.29h-2.47Z"/><path class="cls-1" d="M254.85,9.59l-.7,3.79-2.48,11.88q-.66,3.94-7.53,4l-10.1,0q-5.88,0-6.62-2.84a3.57,3.57,0,0,1-.06-1.24l2.73-12,.78-3.46,6.25,0-1.39,5.08-2.21,9.51c.23.79,1,1.18,2.26,1.18l8.18,0a1.77,1.77,0,0,0,1.62-1.2l2.29-9.51L249,9.62Z"/><path class="cls-1" d="M259.71,29.12l-6,0,6.3-27.34,5.81,0Z"/><path class="cls-1" d="M282.68,21.16l-15.11.05c-2,0-2.67-1.36-2.07-4.1l.91-4.1c.27-2.38,2.15-3.54,5.66-3.48l19-.07-.63,3.79-15.76.05a2.73,2.73,0,0,0-2.65,1.31l-.69,2.7,14.46,0c2.32,0,3.27,1.3,2.82,3.93L288,25.13c-.45,2.63-2.95,3.95-7.53,4H262.69L264,25.32h16.36a1.91,1.91,0,0,0,1.57-1.25A10.28,10.28,0,0,0,282.68,21.16Z"/><path class="cls-1" d="M299.06,21.2H297.9L297.23,24c.23.79,1,1.18,2.27,1.18l16.06-.06L314.72,29l-17,.06c-3.92,0-6.13-.93-6.62-2.84a3.55,3.55,0,0,1-.06-1.24l2.72-12c.27-2.38,2.15-3.53,5.66-3.48l16.2,0q2.91,0,2.2,3.77L317,18.44a3.29,3.29,0,0,1-3.52,2.71Zm12.83-6.09c.69-1.47.21-2.12-1.44-1.94l-8.35,0a2.73,2.73,0,0,0-2.65,1.31l-.91,2.7h3.93l8.93,0,.51-2Z"/></svg>