<svg id="Capa_1" data-name="Capa 1" xmlns="http://www.w3.org/2000/svg" viewBox="0 0 240 240"><defs><style>.cls-1{fill:#f2f2f2;}.cls-1,.cls-2,.cls-3,.cls-4{fill-rule:evenodd;}.cls-2{fill:#3d5ba9;}.cls-3{fill:#003c77;}.cls-4{fill:none;}</style></defs><title>logos-power-appcore</title><path class="cls-1" d="M232,120c0,58.07-50.14,105.15-112,105.15S8,178.07,8,120,58.14,14.85,120,14.85,232,61.92,232,120Z"/><path class="cls-2" d="M85.14,96.83l39,39.44,91.88-70.38c-19.59-30.58-55.27-51-96.05-51C58.14,14.85,8,61.92,8,120a99.15,99.15,0,0,0,5.35,32.18Z"/><path class="cls-3" d="M123.22,165.07l-38.71-38-60.3,47.44C43.85,204.87,79.4,225.15,120,225.15c61.86,0,112-47.08,112-105.15a99.67,99.67,0,0,0-12.87-49Z"/><path class="cls-4" d="M232,120c0,58.07-50.14,105.15-112,105.15S8,178.07,8,120,58.14,14.85,120,14.85,232,61.92,232,120Z"/></svg>