<svg id="Capa_1" data-name="Capa 1" xmlns="http://www.w3.org/2000/svg" viewBox="0 0 240 240"><defs><style>.cls-1,.cls-5{fill:#003c77;}.cls-2{fill:#4a79bc;}.cls-3{fill:#f2f2f2;}.cls-3,.cls-4,.cls-5,.cls-6{fill-rule:evenodd;}.cls-4{fill:#3d5ba9;}.cls-6{fill:none;}</style></defs><title>logos-power-appcore</title><path class="cls-1" d="M36.54,157.66l-2.4,10,0,.21a2.75,2.75,0,0,0,.08.7l-1.41,6.1-8.3,0,1.58-7.44,5.27-23.29a11.34,11.34,0,0,1,7.09-6.62c1-.19,2-.33,3-.43s2.08-.15,3.15-.15l15-.06c1,0,1.86.12,2.71.24a22,22,0,0,1,2.38.44,7.69,7.69,0,0,1,4.24,4.76l.54,2.1L67.73,154q-.9,3.51-6.37,3.53H58.15Zm19.3-15.92-10.62,0a5.69,5.69,0,0,0-5.43,2.4l-2.22,8.29,17.84-.07q4.05,0,4.77-3.1l1.07-5.05a5.66,5.66,0,0,0-4-2.51Z"/><path class="cls-1" d="M101.24,169.07q-.85,5.12-9.77,5.15l-13.12.05q-7.65,0-8.6-3.69a4.41,4.41,0,0,1-.08-1.61l3.54-15.65q.51-4.62,7.34-4.51l13.26-.05q9.21,0,10.65,4.87ZM84,153.7c-1.7,0-2.84.57-3.43,1.7l-2.88,12.35q.43,1.55,2.94,1.53l10.68,0a2.5,2.5,0,0,0,2-1.63l3-12.35a2.46,2.46,0,0,0-2.51-1.67H90.59Z"/><path class="cls-1" d="M127.39,169.19l6.8,0c.71-.19,1.17-.84,1.38-2l2.76-12.07,1.46-6.45,7.84,0-1.3,5.26-3.54,15.65q-1,4.5-6.59,4.51l-20.43.08q-9.21,0-10.65-4.87l3.22-15.44,1-5.05,8.12,0-4.15,18.8a2.42,2.42,0,0,0,2.5,1.68l5.2,0,.47-3,3.62-17.54,7,0-3.9,17.55Z"/><path class="cls-1" d="M158.46,163.82H157l-.86,3.65c.3,1,1.28,1.54,2.95,1.53l20.85-.07-1.08,5-22,.08q-7.64,0-8.59-3.69a4.62,4.62,0,0,1-.09-1.61L151.64,153q.51-4.62,7.34-4.51l21.05-.08c2.51,0,3.47,1.63,2.86,4.9l-1.07,6.88a4.29,4.29,0,0,1-4.58,3.52Zm16.68-7.92q1.34-2.88-1.88-2.52l-10.85,0c-1.7,0-2.85.57-3.44,1.7l-1.18,3.51,5.1,0,11.61,0,.65-2.6Z"/><path class="cls-1" d="M198,153.3c-1.7,0-2.85.57-3.44,1.69l-2.88,12.35-1.46,6.46-7.83,0,1.29-5.27,3.41-15.08q.64-5.19,7.5-5l20.76-.07-1.21,4.84-9.53,0Z"/><path class="cls-1" d="M54.73,201.56l0,.14a1.56,1.56,0,0,0,.06.48l-1,4.19-5.7,0,1.16-5.1,3.6-16L54,180.42l5.69,0-1.09,5.1-2.31,9.42Z"/><path class="cls-1" d="M70.65,194.1l.45-2-5.17,0-.29,1.16-2,8.46-1,4.42-5.37,0,.88-3.6,2.43-10.73.7-3.08,17.82-.06c4.2,0,6.64,1.1,7.3,3.34l-2.21,10.58-.66,3.46-5.57,0,2.85-12.89a1.7,1.7,0,0,0-1.72-1.15l-3.56,0-.32,2-2.48,12-4.79,0Z"/><path class="cls-1" d="M108.34,202.52q-.59,3.51-6.7,3.53H90.8L89,213l-4.85,0,2.54-10.54,2.42-10.72c.24-2.11,1.92-3.15,5-3.09l9.08,0q6.31,0,7.3,3.34ZM96.52,192a2.44,2.44,0,0,0-2.36,1.16l-2,8.47c.2.7.87,1,2,1l7.32,0a1.7,1.7,0,0,0,1.39-1.11l2-8.46a1.68,1.68,0,0,0-1.72-1.15H96.52Z"/><path class="cls-1" d="M135.56,188.49l-.63,3.36-2.2,10.58c-.4,2.35-2.63,3.52-6.7,3.54l-9,0c-3.49,0-5.46-.83-5.89-2.53a2.81,2.81,0,0,1-.06-1.1l2.43-10.73.7-3.08,5.56,0-1.24,4.53-2,8.46c.2.71.88,1.05,2,1.05l7.27,0a1.55,1.55,0,0,0,1.45-1.06l2-8.46,1-4.52Z"/><path class="cls-1" d="M139.89,205.87l-5.3,0,5.6-24.34,5.17,0Z"/><path class="cls-1" d="M160.34,198.78l-13.46.05c-1.76,0-2.38-1.21-1.84-3.65l.81-3.65q.36-3.18,5-3.1l17-.06-.56,3.37-14,0a2.42,2.42,0,0,0-2.36,1.16l-.61,2.41,12.87-.05q3.11,0,2.51,3.5l-.59,3.51q-.59,3.51-6.7,3.53H142.54l1.14-3.37h14.56a1.7,1.7,0,0,0,1.4-1.11A9.57,9.57,0,0,0,160.34,198.78Z"/><path class="cls-1" d="M174.91,198.82h-1l-.59,2.5c.2.7.87,1,2,1l14.29,0-.74,3.41-15.1.06q-5.25,0-5.89-2.53a2.85,2.85,0,0,1-.06-1.11l2.43-10.72c.23-2.11,1.91-3.15,5-3.09l14.42-.06c1.72,0,2.38,1.12,2,3.36l-.73,4.71a3,3,0,0,1-3.14,2.42Zm11.43-5.42c.61-1.31.18-1.89-1.28-1.72l-7.44,0a2.44,2.44,0,0,0-2.36,1.16l-.8,2.41H178l8,0,.45-1.78Z"/><path class="cls-2" d="M43.22,218.12H49.8v1.2H44.42v3h5v1.14h-5v3.34h5.47V228H43.22Z"/><path class="cls-2" d="M51.13,220.78h1.06v1a2.94,2.94,0,0,1,1-.9,2.53,2.53,0,0,1,1.17-.28,1.89,1.89,0,0,1,1.9,1.07,4.08,4.08,0,0,1,.27,1.67V228H55.4v-4.52a2.63,2.63,0,0,0-.18-1.06,1.08,1.08,0,0,0-1.08-.67,2,2,0,0,0-.65.09,1.66,1.66,0,0,0-.8.59,1.92,1.92,0,0,0-.36.73,5,5,0,0,0-.08,1.08V228H51.13Z"/><path class="cls-2" d="M62,221a2.58,2.58,0,0,1,1,.93,3.3,3.3,0,0,1,.44,1.27,8.57,8.57,0,0,1,.1,1.58H58.73a3.33,3.33,0,0,0,.47,1.76,1.53,1.53,0,0,0,1.37.66,1.68,1.68,0,0,0,1.37-.63,2.06,2.06,0,0,0,.41-.84h1.1a2.66,2.66,0,0,1-.29.88,3.12,3.12,0,0,1-.55.8,2.43,2.43,0,0,1-1.24.72,3.58,3.58,0,0,1-.9.11,2.67,2.67,0,0,1-2.08-1,4,4,0,0,1-.85-2.73,4.34,4.34,0,0,1,.86-2.81,2.72,2.72,0,0,1,2.24-1.08A2.8,2.8,0,0,1,62,221Zm.4,2.82a3.3,3.3,0,0,0-.32-1.25,1.56,1.56,0,0,0-1.51-.87,1.61,1.61,0,0,0-1.27.6,2.38,2.38,0,0,0-.55,1.52Z"/><path class="cls-2" d="M64.72,220.78h1.06V222a2.82,2.82,0,0,1,.64-.88,1.58,1.58,0,0,1,1.16-.52h.11l.25,0v1.27l-.18,0h-.18a1.53,1.53,0,0,0-1.29.58,2.2,2.2,0,0,0-.46,1.35V228H64.72Z"/><path class="cls-2" d="M72.33,221.07a3.35,3.35,0,0,1,.64.69v-.91h1v6.53a5.15,5.15,0,0,1-.37,2.16A2.61,2.61,0,0,1,71,231a3,3,0,0,1-1.79-.52,2,2,0,0,1-.81-1.62h1.13a1.41,1.41,0,0,0,.32.74A1.51,1.51,0,0,0,71,230a1.6,1.6,0,0,0,1.67-1,6.22,6.22,0,0,0,.21-2.06,2.25,2.25,0,0,1-.8.82,2.44,2.44,0,0,1-1.23.27,2.55,2.55,0,0,1-1.88-.83,3.87,3.87,0,0,1-.8-2.74,4.37,4.37,0,0,1,.81-2.81,2.41,2.41,0,0,1,2-1A2.33,2.33,0,0,1,72.33,221.07Zm.13,1.3a1.55,1.55,0,0,0-1.28-.65,1.6,1.6,0,0,0-1.6,1.2,5.08,5.08,0,0,0-.23,1.67,3.16,3.16,0,0,0,.46,1.84,1.42,1.42,0,0,0,1.21.64,1.72,1.72,0,0,0,1.68-1.18,4.09,4.09,0,0,0,.27-1.55A3.14,3.14,0,0,0,72.46,222.37Z"/><path class="cls-2" d="M79.56,220.78h1.23c-.15.47-.5,1.52-1,3.16-.41,1.23-.74,2.24-1,3a21.93,21.93,0,0,1-1.36,3.35,1.49,1.49,0,0,1-1.36.61l-.36,0-.31-.08v-1.1a2.64,2.64,0,0,0,.42.11l.23,0a.69.69,0,0,0,.69-.38s.1-.22.22-.55l.28-.73-2.44-7.4H76l1.77,5.85Z"/><path class="cls-2" d="M88.3,223.62a.59.59,0,0,0,.51-.35,1.12,1.12,0,0,0,.08-.46,1,1,0,0,0-.41-.9,2,2,0,0,0-1.15-.28,1.4,1.4,0,0,0-1.23.51,1.73,1.73,0,0,0-.27.84h-1a2.15,2.15,0,0,1,.79-1.85,3,3,0,0,1,1.76-.52,3.41,3.41,0,0,1,1.9.48,1.69,1.69,0,0,1,.72,1.5v4.14a.51.51,0,0,0,.07.3.33.33,0,0,0,.3.12h.17l.19,0V228l-.39.1-.37,0a.92.92,0,0,1-.84-.44,1.92,1.92,0,0,1-.19-.67,2.89,2.89,0,0,1-1,.84,2.8,2.8,0,0,1-1.4.35,2,2,0,0,1-1.51-.6,2.09,2.09,0,0,1-.58-1.52,2,2,0,0,1,.57-1.54,2.61,2.61,0,0,1,1.51-.68ZM86,226.88a1.25,1.25,0,0,0,.84.3,2.43,2.43,0,0,0,1.13-.29,1.68,1.68,0,0,0,.93-1.6v-1a1.63,1.63,0,0,1-.53.24,3.61,3.61,0,0,1-.62.13l-.68.1a2.53,2.53,0,0,0-.9.27,1.09,1.09,0,0,0-.52,1A1,1,0,0,0,86,226.88Z"/><path class="cls-2" d="M91.54,220.78h1v1a3.06,3.06,0,0,1,1-.9,2.52,2.52,0,0,1,1.16-.28,1.91,1.91,0,0,1,1.91,1.07,4.08,4.08,0,0,1,.27,1.67V228H95.8v-4.52a2.63,2.63,0,0,0-.18-1.06,1.08,1.08,0,0,0-1.08-.67,1.89,1.89,0,0,0-.64.09,1.64,1.64,0,0,0-.81.59,1.92,1.92,0,0,0-.36.73,5.79,5.79,0,0,0-.08,1.08V228H91.54Z"/><path class="cls-2" d="M102,221a2.83,2.83,0,0,1,.67.7v-3.63h1.07V228h-1v-1a2.44,2.44,0,0,1-.92,1,2.4,2.4,0,0,1-3.12-.71,4.21,4.21,0,0,1-.8-2.68,4.92,4.92,0,0,1,.73-2.72,2.34,2.34,0,0,1,2.1-1.15A2.14,2.14,0,0,1,102,221Zm-2.48,5.38a1.54,1.54,0,0,0,1.44.78,1.48,1.48,0,0,0,1.26-.72,3.66,3.66,0,0,0,.49-2.07,3.28,3.28,0,0,0-.51-2,1.56,1.56,0,0,0-1.26-.65,1.61,1.61,0,0,0-1.35.7,3.37,3.37,0,0,0-.52,2.05A3.8,3.8,0,0,0,99.47,226.39Z"/><path class="cls-2" d="M112.72,221.17a2.94,2.94,0,0,1,.85,2h-1.08a2.41,2.41,0,0,0-.45-1.11,1.39,1.39,0,0,0-1.14-.43,1.56,1.56,0,0,0-1.51,1.12,4.77,4.77,0,0,0-.3,1.8,3.63,3.63,0,0,0,.42,1.82,1.41,1.41,0,0,0,1.32.73,1.38,1.38,0,0,0,1.1-.46,2.63,2.63,0,0,0,.56-1.25h1.08a3.29,3.29,0,0,1-.93,2.09,2.75,2.75,0,0,1-1.9.66,2.43,2.43,0,0,1-2.06-1,4.11,4.11,0,0,1-.78-2.57,4.59,4.59,0,0,1,.85-2.94,2.64,2.64,0,0,1,2.15-1A2.68,2.68,0,0,1,112.72,221.17Z"/><path class="cls-2" d="M119.22,221.5a3.83,3.83,0,0,1,.87,2.72,5,5,0,0,1-.77,2.87,2.71,2.71,0,0,1-2.4,1.13,2.6,2.6,0,0,1-2.15-1,4.22,4.22,0,0,1-.8-2.69,4.53,4.53,0,0,1,.84-2.88,2.71,2.71,0,0,1,2.26-1.07A2.84,2.84,0,0,1,119.22,221.5Zm-.69,4.77a4.89,4.89,0,0,0,.4-2,4,4,0,0,0-.29-1.63,1.63,1.63,0,0,0-1.6-1,1.56,1.56,0,0,0-1.47.84,4.3,4.3,0,0,0-.45,2,3.72,3.72,0,0,0,.45,1.91,1.57,1.57,0,0,0,1.46.76A1.5,1.5,0,0,0,118.53,226.27Z"/><path class="cls-2" d="M126,221.5a3.79,3.79,0,0,1,.88,2.72,5,5,0,0,1-.77,2.87,2.72,2.72,0,0,1-2.4,1.13,2.6,2.6,0,0,1-2.15-1,4.22,4.22,0,0,1-.8-2.69,4.53,4.53,0,0,1,.84-2.88,2.7,2.7,0,0,1,2.26-1.07A2.82,2.82,0,0,1,126,221.5Zm-.69,4.77a4.74,4.74,0,0,0,.41-2,4,4,0,0,0-.29-1.63,1.63,1.63,0,0,0-1.6-1,1.56,1.56,0,0,0-1.47.84,4.3,4.3,0,0,0-.46,2,3.72,3.72,0,0,0,.46,1.91,1.57,1.57,0,0,0,1.46.76A1.49,1.49,0,0,0,125.3,226.27Z"/><path class="cls-2" d="M128,218.12h1.12V228H128Z"/><path class="cls-2" d="M130.54,218.12h1.13v1.36h-1.13Zm0,2.7h1.13V228h-1.13Z"/><path class="cls-2" d="M133.09,220.78h1.06v1a2.94,2.94,0,0,1,1-.9,2.53,2.53,0,0,1,1.17-.28,1.89,1.89,0,0,1,1.9,1.07,4.06,4.06,0,0,1,.28,1.67V228h-1.14v-4.52a2.83,2.83,0,0,0-.17-1.06,1.08,1.08,0,0,0-1.08-.67,2,2,0,0,0-.65.09,1.66,1.66,0,0,0-.8.59,1.78,1.78,0,0,0-.36.73,5,5,0,0,0-.08,1.08V228h-1.12Z"/><path class="cls-2" d="M143.55,221.07a3.35,3.35,0,0,1,.64.69v-.91h1v6.53a5.15,5.15,0,0,1-.37,2.16,2.59,2.59,0,0,1-2.6,1.46,3,3,0,0,1-1.79-.52,2.1,2.1,0,0,1-.81-1.62h1.13a1.41,1.41,0,0,0,.32.74,1.53,1.53,0,0,0,1.18.4,1.58,1.58,0,0,0,1.66-1,5.89,5.89,0,0,0,.22-2.06,2.25,2.25,0,0,1-.8.82,2.5,2.5,0,0,1-1.24.27,2.53,2.53,0,0,1-1.87-.83,3.82,3.82,0,0,1-.8-2.74,4.37,4.37,0,0,1,.8-2.81,2.41,2.41,0,0,1,2-1A2.32,2.32,0,0,1,143.55,221.07Zm.14,1.3a1.58,1.58,0,0,0-1.29-.65,1.6,1.6,0,0,0-1.6,1.2,5.11,5.11,0,0,0-.22,1.67,3.16,3.16,0,0,0,.45,1.84,1.42,1.42,0,0,0,1.21.64,1.71,1.71,0,0,0,1.68-1.18,4.09,4.09,0,0,0,.27-1.55A3.21,3.21,0,0,0,143.69,222.37Z"/><path class="cls-2" d="M150.57,225.71a1.89,1.89,0,0,0,.29.93,1.71,1.71,0,0,0,1.48.58,2.14,2.14,0,0,0,1.11-.29,1,1,0,0,0,.48-.9.8.8,0,0,0-.38-.71,4.32,4.32,0,0,0-1-.34l-.89-.24a4,4,0,0,1-1.27-.51,1.54,1.54,0,0,1-.73-1.35,2.13,2.13,0,0,1,.69-1.65,2.6,2.6,0,0,1,1.84-.63,2.45,2.45,0,0,1,2.18,1,2.14,2.14,0,0,1,.41,1.3h-1.05a1.42,1.42,0,0,0-.27-.74,1.67,1.67,0,0,0-1.36-.47,1.53,1.53,0,0,0-1,.26.82.82,0,0,0-.33.68.86.86,0,0,0,.44.75,2.54,2.54,0,0,0,.74.3l.75.19a5.38,5.38,0,0,1,1.63.61,1.65,1.65,0,0,1,.65,1.46,2.28,2.28,0,0,1-.68,1.65,2.73,2.73,0,0,1-2.06.7,2.65,2.65,0,0,1-2.12-.73,2.81,2.81,0,0,1-.66-1.8Z"/><path class="cls-2" d="M160.77,221.5a3.79,3.79,0,0,1,.88,2.72,5,5,0,0,1-.77,2.87,2.72,2.72,0,0,1-2.4,1.13,2.6,2.6,0,0,1-2.15-1,4.22,4.22,0,0,1-.8-2.69,4.53,4.53,0,0,1,.84-2.88,2.7,2.7,0,0,1,2.26-1.07A2.82,2.82,0,0,1,160.77,221.5Zm-.69,4.77a4.89,4.89,0,0,0,.41-2,4,4,0,0,0-.29-1.63,1.64,1.64,0,0,0-1.6-1,1.55,1.55,0,0,0-1.47.84,4.3,4.3,0,0,0-.46,2,3.72,3.72,0,0,0,.46,1.91,1.57,1.57,0,0,0,1.45.76A1.49,1.49,0,0,0,160.08,226.27Z"/><path class="cls-2" d="M162.79,218.12h1.11V228h-1.11Z"/><path class="cls-2" d="M166.43,220.78v4.77a2.28,2.28,0,0,0,.15.9,1.08,1.08,0,0,0,1.08.64A1.53,1.53,0,0,0,169.2,226a5,5,0,0,0,.22-1.66v-3.53h1.11V228h-1.05l0-1.06a2.53,2.53,0,0,1-.53.7,2.21,2.21,0,0,1-1.52.56,1.88,1.88,0,0,1-1.88-1,3.18,3.18,0,0,1-.28-1.47v-4.88Z"/><path class="cls-2" d="M172.32,218.78h1.12v2h1.06v1h-1.06v4.69a.52.52,0,0,0,.24.5.9.9,0,0,0,.43.07h.17l.22,0v1a2.59,2.59,0,0,1-.4.09,3.19,3.19,0,0,1-.45,0,1.16,1.16,0,0,1-1.05-.43,2,2,0,0,1-.28-1.13v-4.75h-.9v-1h.9Z"/><path class="cls-2" d="M175.35,218.12h1.14v1.36h-1.14Zm0,2.7h1.14V228h-1.14Z"/><path class="cls-2" d="M182.7,221.5a3.79,3.79,0,0,1,.88,2.72,5,5,0,0,1-.77,2.87,2.72,2.72,0,0,1-2.4,1.13,2.6,2.6,0,0,1-2.15-1,4.22,4.22,0,0,1-.8-2.69,4.53,4.53,0,0,1,.84-2.88,2.7,2.7,0,0,1,2.26-1.07A2.82,2.82,0,0,1,182.7,221.5Zm-.69,4.77a4.89,4.89,0,0,0,.41-2,4,4,0,0,0-.29-1.63,1.64,1.64,0,0,0-1.6-1,1.55,1.55,0,0,0-1.47.84,4.3,4.3,0,0,0-.46,2,3.72,3.72,0,0,0,.46,1.91,1.57,1.57,0,0,0,1.46.76A1.49,1.49,0,0,0,182,226.27Z"/><path class="cls-2" d="M184.69,220.78h1.06v1a2.94,2.94,0,0,1,1-.9,2.53,2.53,0,0,1,1.17-.28,1.89,1.89,0,0,1,1.9,1.07,4.08,4.08,0,0,1,.27,1.67V228H189v-4.52a2.63,2.63,0,0,0-.18-1.06,1.07,1.07,0,0,0-1.07-.67,2,2,0,0,0-.65.09,1.62,1.62,0,0,0-.8.59,1.67,1.67,0,0,0-.36.73,4.92,4.92,0,0,0-.09,1.08V228h-1.11Z"/><path class="cls-2" d="M192.13,225.71a1.9,1.9,0,0,0,.28.93,1.74,1.74,0,0,0,1.49.58,2.14,2.14,0,0,0,1.11-.29,1,1,0,0,0,.48-.9.8.8,0,0,0-.38-.71,4.53,4.53,0,0,0-1-.34l-.9-.24a4.06,4.06,0,0,1-1.26-.51,1.54,1.54,0,0,1-.73-1.35,2.16,2.16,0,0,1,.68-1.65,2.63,2.63,0,0,1,1.85-.63,2.48,2.48,0,0,1,2.18,1,2.2,2.2,0,0,1,.41,1.3h-1.05a1.43,1.43,0,0,0-.28-.74,1.65,1.65,0,0,0-1.35-.47,1.53,1.53,0,0,0-1,.26.82.82,0,0,0-.33.68.85.85,0,0,0,.43.75,2.76,2.76,0,0,0,.75.3l.74.19a5.47,5.47,0,0,1,1.64.61,1.67,1.67,0,0,1,.65,1.46,2.28,2.28,0,0,1-.68,1.65,2.74,2.74,0,0,1-2.07.7,2.63,2.63,0,0,1-2.11-.73,2.82,2.82,0,0,1-.67-1.8Z"/><path class="cls-3" d="M184.37,72.56c0,33.38-28.82,60.44-64.37,60.44S55.63,105.94,55.63,72.56,84.45,12.12,120,12.12,184.37,39.18,184.37,72.56Z"/><path class="cls-4" d="M100,59.24l22.43,22.67,52.82-40.45C164,23.88,143.44,12.12,120,12.12c-35.55,0-64.37,27.06-64.37,60.44a57.16,57.16,0,0,0,3.07,18.5Z"/><path class="cls-5" d="M121.85,98.46,99.6,76.62,64.94,103.89C76.23,121.34,96.66,133,120,133c35.55,0,64.37-27.06,64.37-60.44A57.22,57.22,0,0,0,177,44.42Z"/><path class="cls-6" d="M184.37,72.56c0,33.38-28.82,60.44-64.37,60.44S55.63,105.94,55.63,72.56,84.45,12.12,120,12.12,184.37,39.18,184.37,72.56Z"/></svg>