<svg id="Capa_1" data-name="Capa 1" xmlns="http://www.w3.org/2000/svg" viewBox="0 0 240 240"><defs><style>.cls-1,.cls-4{fill:#003c77;}.cls-2{fill:#f2f2f2;}.cls-2,.cls-3,.cls-4,.cls-5{fill-rule:evenodd;}.cls-3{fill:#3d5ba9;}.cls-5{fill:none;}</style></defs><title>logos-power-appcore</title><path class="cls-1" d="M28.59,173.33,26,184.26l-.05.23a3.13,3.13,0,0,0,.1.77L24.46,192l-9.1,0,1.74-8.16,5.77-25.54A12.47,12.47,0,0,1,30.64,151c1.09-.21,2.19-.36,3.32-.47s2.28-.16,3.45-.17l16.46-.06c1.05,0,2,.14,3,.26a26.6,26.6,0,0,1,2.62.49,8.48,8.48,0,0,1,4.65,5.21l.59,2.31-1.9,10.77c-.65,2.57-3,3.85-7,3.87H52.29Zm21.16-17.45-11.64,0a6.25,6.25,0,0,0-6,2.64l-2.44,9.08,19.56-.07c3,0,4.71-1.14,5.24-3.4l1.17-5.54a6.23,6.23,0,0,0-4.44-2.75Z"/><path class="cls-1" d="M99.54,185.85q-.95,5.61-10.72,5.65l-14.38.05q-8.39,0-9.43-4a5.09,5.09,0,0,1-.09-1.77l3.88-17.16q.57-5.09,8-5l14.54,0q10.1,0,11.68,5.34ZM80.61,169c-1.86,0-3.12.62-3.77,1.86L73.69,184.4c.32,1.13,1.4,1.69,3.23,1.68l11.71,0a2.72,2.72,0,0,0,2.24-1.77l3.25-13.55A2.69,2.69,0,0,0,91.38,169H87.86Z"/><path class="cls-1" d="M128.21,186l7.45,0c.78-.21,1.28-.93,1.52-2.16l3-13.24,1.6-7.08,8.59,0L149,169.21l-3.89,17.16q-1.11,4.94-7.22,4.95l-22.4.08c-6.73,0-10.62-1.76-11.68-5.34l3.53-16.93,1.06-5.54,8.9,0-4.55,20.62a2.67,2.67,0,0,0,2.75,1.84l5.69,0,.52-3.23,4-19.24,7.65,0L129,182.74Z"/><path class="cls-1" d="M162.28,180.08h-1.66l-.94,4c.32,1.13,1.4,1.69,3.23,1.68l22.87-.08-1.19,5.46-24.16.09q-8.38,0-9.43-4a5.06,5.06,0,0,1-.09-1.77l3.88-17.16q.57-5.07,8.06-5l23.07-.08q4.14,0,3.14,5.37l-1.17,7.54a4.7,4.7,0,0,1-5,3.86Zm18.28-8.67c1-2.11.29-3-2.05-2.76l-11.9,0c-1.87,0-3.12.63-3.77,1.86l-1.3,3.85,5.59,0,12.73,0,.72-2.85Z"/><path class="cls-1" d="M205.62,168.55c-1.87,0-3.12.63-3.77,1.86L198.69,184l-1.6,7.08-8.59,0,1.42-5.77,3.73-16.54q.72-5.7,8.23-5.49l22.76-.08-1.33,5.31-10.45,0Z"/><path class="cls-1" d="M48.53,221.47l0,.16a2.44,2.44,0,0,0,.07.53l-1.13,4.58-6.24,0,1.26-5.59,4-17.51,1.31-5.38,6.24,0-1.19,5.59-2.53,10.33Z"/><path class="cls-1" d="M66,213.29l.5-2.21-5.68,0-.31,1.27-2.16,9.28-1.1,4.85-5.89,0,1-4L55,210.8l.77-3.37,19.53-.07q6.92,0,8,3.66l-2.41,11.6-.74,3.8-6.09,0,3.11-14.13a1.83,1.83,0,0,0-1.88-1.26h-3.9L71,213.28,68.3,226.46l-5.25,0Z"/><path class="cls-1" d="M107.33,222.53q-.64,3.84-7.35,3.87H88.09l-2,7.59-5.32,0,2.79-11.55,2.66-11.76q.39-3.48,5.52-3.39l10,0q6.92,0,8,3.66ZM94.36,211a2.67,2.67,0,0,0-2.59,1.27l-2.16,9.28c.22.78,1,1.16,2.21,1.16l8,0a1.86,1.86,0,0,0,1.53-1.22l2.24-9.28a1.88,1.88,0,0,0-1.89-1.26H99.32Z"/><path class="cls-1" d="M137.17,207.14l-.69,3.69-2.42,11.6q-.65,3.85-7.35,3.87l-9.85,0c-3.83,0-6-.91-6.46-2.77a3.63,3.63,0,0,1-.07-1.21L113,210.6l.76-3.38,6.1,0-1.35,5-2.16,9.28c.22.77,1,1.15,2.21,1.15l8,0a1.72,1.72,0,0,0,1.59-1.16l2.23-9.28,1.14-5Z"/><path class="cls-1" d="M141.91,226.19l-5.81,0,6.14-26.69,5.67,0Z"/><path class="cls-1" d="M164.33,218.42l-14.75.05q-2.91,0-2-4l.89-4q.39-3.48,5.52-3.39l18.58-.07-.62,3.69-15.38.06A2.67,2.67,0,0,0,154,212l-.67,2.64,14.11,0q3.4,0,2.76,3.83l-.64,3.85q-.65,3.85-7.35,3.88H144.82l1.25-3.69h16a1.87,1.87,0,0,0,1.53-1.22A10.42,10.42,0,0,0,164.33,218.42Z"/><path class="cls-1" d="M180.31,218.47h-1.13l-.64,2.75c.22.77,1,1.15,2.21,1.15l15.67-.06-.82,3.75-16.55.06q-5.75,0-6.46-2.77a3.69,3.69,0,0,1-.07-1.22l2.67-11.76c.25-2.31,2.09-3.45,5.52-3.39l15.81,0q2.83,0,2.15,3.68l-.81,5.16a3.21,3.21,0,0,1-3.43,2.65Zm12.53-5.95c.68-1.44.21-2.07-1.4-1.89l-8.16,0a2.66,2.66,0,0,0-2.58,1.28l-.89,2.63h3.83l8.73,0,.49-1.95Z"/><path class="cls-2" d="M197.41,76.59c0,40.14-34.66,72.68-77.41,72.68S42.59,116.73,42.59,76.59,77.25,3.91,120,3.91,197.41,36.45,197.41,76.59Z"/><path class="cls-3" d="M95.9,60.58l27,27.26L186.39,39.2C172.85,18.06,148.18,3.91,120,3.91c-42.75,0-77.41,32.54-77.41,72.68a68.49,68.49,0,0,0,3.7,22.24Z"/><path class="cls-4" d="M122.23,107.74,95.47,81.48,53.79,114.27c13.58,21,38.15,35,66.21,35,42.75,0,77.41-32.54,77.41-72.68a68.9,68.9,0,0,0-8.89-33.84Z"/><path class="cls-5" d="M197.41,76.59c0,40.14-34.66,72.68-77.41,72.68S42.59,116.73,42.59,76.59,77.25,3.91,120,3.91,197.41,36.45,197.41,76.59Z"/></svg>